# xmcd CD database file
# Generated: sam jun 19 18:52:30 2004 by KSCD
# 
# Track frame offsets:
#       180
#       14205
#       31300
#       50667
#       68670
#       84082
#       98125
#       115910
#       130780
#       146722
#       168167
#       186432
#       199737
#       215905
#       235097
#
# Disc length: 3399 seconds
#
# Revision: 1
# Processed by: cddbd v1.5.1PL0 Copyright (c) Steve Scherf et al.
# Submitted via: Kscd 1.3.3
#
DISCID=d70d450f
DTITLE=G.R.E.S - SAMBA ENREDO du carnaval de Rio (vol 1)
DYEAR=1900
DGENRE=
TTITLE0=Lendas do abaete
TTITLE1=O mundo melhor de pixinguinha
TTITLE2=Macunaima (herois de nossa gente)
TTITLE3=O segredo das minas do rei Salomon
TTITLE4=Sonhar con rei da leao
TTITLE5=No reina da mae do ouro
TTITLE6=Vovo e o rei da saturnalia na corte egipciana
TTITLE7=Domingo
TTITLE8=Brasil berco dos imigrantes
TTITLE9=Criaco do mundo na tradicao nago
TTITLE10=O amanha
TTITLE11=Mulher a brasileira
TTITLE12=Avatar e a selva transformou se em ouro
TTITLE13=O sol da meia noite uma visagem ao
TTITLE14=Bom bonito e barato
EXTD=
EXTT0=
EXTT1=
EXTT2=
EXTT3=
EXTT4=
EXTT5=
EXTT6=
EXTT7=
EXTT8=
EXTT9=
EXTT10=
EXTT11=
EXTT12=
EXTT13=
EXTT14=
PLAYORDER=
